<svg
   height="66.001251"
   width="96.748749"
   viewBox="0 0 96.748748 66.001253">
  <g transform="translate(-59.847143,-308.69005)">
    <path
       d="m 59.847143,374.6913 h 21 l 1.5,-18.00125 -19.50125,-4.49875 z"
       fill="#4c4c4c" />
    <path
       d="m 63.597143,349.19005 18.75,4.5 4.5,-15.75 -15.75,-8.24875 z"
       fill="#4c4c4c" />
    <path
       d="m 72.595893,326.69005 15,8.25 12.00125,-8.25 -11.25,-12.75 z"
       fill="#4c4c4c" />
    <path
       d="m 156.59589,374.6913 h -20.99875 l -1.50125,-18.00125 19.50125,-4.49875 z"
       fill="#4c4c4c" />
    <path
       d="m 152.84589,349.19005 -18.75,4.5 -4.49875,-15.75 15.74875,-8.24875 z"
       fill="#4c4c4c" />
    <path
       d="m 143.84589,326.69005 -15,8.25 -11.99875,-8.25 11.25,-12.75 z"
       fill="#4c4c4c" />
    <path
       d="m 92.097143,311.69005 11.249997,13.5 h 10.49875 l 9.75125,-13.5 -9.75125,-3 h -10.7625 z"
       fill="#4c4c4c" />
    <path
       d="m 59.847143,374.6913 h 21 l 1.5,-18.00125 -19.50125,-4.49875 z"
       fill="#9c0000" />
    <path
       d="m 63.597143,349.19005 18.75,4.5 4.5,-15.75 -15.75,-8.24875 z"
       fill="#b50808" />
    <path
       d="m 72.595893,326.69005 15,8.25 12.00125,-8.25 -11.25,-12.75 z"
       fill="#c61818" />
    <path
       d="m 156.59589,374.6913 h -20.99875 l -1.50125,-18.00125 19.50125,-4.49875 z"
       fill="#9c0000" />
    <path
       d="m 152.84589,349.19005 -18.75,4.5 -4.49875,-15.75 15.74875,-8.24875 z"
       fill="#b50808" />
    <path
       d="m 143.84589,326.69005 -15,8.25 -11.99875,-8.25 11.25,-12.75 z"
       fill="#c61818" />
    <path
       d="m 92.097143,311.69005 11.249997,13.5 h 10.49875 l 9.75125,-13.5 -9.75125,-3 h -10.7625 z"
       fill="#ce3129" />
  </g>
</svg>
