<?xml version="1.0" encoding="UTF-8" standalone="no"?>
<svg
   xmlns:dc="http://purl.org/dc/elements/1.1/"
   xmlns:cc="http://creativecommons.org/ns#"
   xmlns:rdf="http://www.w3.org/1999/02/22-rdf-syntax-ns#"
   xmlns:svg="http://www.w3.org/2000/svg"
   xmlns="http://www.w3.org/2000/svg"
   xmlns:sodipodi="http://sodipodi.sourceforge.net/DTD/sodipodi-0.dtd"
   xmlns:inkscape="http://www.inkscape.org/namespaces/inkscape"
   version="1.1"
   id="svg17"
   sodipodi:docname="redmine_logo.svg"
   width="96.748749"
   height="66.001251"
   inkscape:version="0.92.1 r15371">
  <metadata
     id="metadata23">
    <rdf:RDF>
      <cc:Work
         rdf:about="">
        <dc:format>image/svg+xml</dc:format>
        <dc:type
           rdf:resource="http://purl.org/dc/dcmitype/StillImage" />
        <dc:title></dc:title>
      </cc:Work>
    </rdf:RDF>
  </metadata>
  <defs
     id="defs21" />
  <sodipodi:namedview
     pagecolor="#ffffff"
     bordercolor="#666666"
     borderopacity="1"
     objecttolerance="10"
     gridtolerance="10"
     guidetolerance="10"
     inkscape:pageopacity="0"
     inkscape:pageshadow="2"
     inkscape:window-width="1152"
     inkscape:window-height="827"
     id="namedview19"
     showgrid="false"
     fit-margin-top="0"
     fit-margin-left="0"
     fit-margin-right="0"
     fit-margin-bottom="0"
     inkscape:zoom="2.36"
     inkscape:cx="50.847458"
     inkscape:cy="14.306335"
     inkscape:window-x="0"
     inkscape:window-y="0"
     inkscape:window-maximized="1"
     inkscape:current-layer="svg17" />
  <g
     transform="translate(-59.847143,-308.69005)"
     id="g4">
    <path
       d="m 59.847143,374.6913 h 21 l 1.5,-18.00125 -19.50125,-4.49875 z"
       id="path6"
       style="fill:#4c4c4c"
       inkscape:connector-curvature="0" />
    <path
       d="m 63.597143,349.19005 18.75,4.5 4.5,-15.75 -15.75,-8.24875 z"
       id="path8"
       style="fill:#4c4c4c"
       inkscape:connector-curvature="0" />
    <path
       d="m 72.595893,326.69005 15,8.25 12.00125,-8.25 -11.25,-12.75 z"
       id="path10"
       style="fill:#4c4c4c"
       inkscape:connector-curvature="0" />
    <path
       d="m 156.59589,374.6913 h -20.99875 l -1.50125,-18.00125 19.50125,-4.49875 z"
       id="path12"
       style="fill:#4c4c4c"
       inkscape:connector-curvature="0" />
    <path
       d="m 152.84589,349.19005 -18.75,4.5 -4.49875,-15.75 15.74875,-8.24875 z"
       id="path14"
       style="fill:#4c4c4c"
       inkscape:connector-curvature="0" />
    <path
       d="m 143.84589,326.69005 -15,8.25 -11.99875,-8.25 11.25,-12.75 z"
       id="path16"
       style="fill:#4c4c4c"
       inkscape:connector-curvature="0" />
    <path
       d="m 92.097143,311.69005 11.249997,13.5 h 10.49875 l 9.75125,-13.5 -9.75125,-3 h -10.7625 z"
       id="path18"
       style="fill:#4c4c4c"
       inkscape:connector-curvature="0" />
    <path
       d="m 59.847143,374.6913 h 21 l 1.5,-18.00125 -19.50125,-4.49875 z"
       id="path20"
       style="fill:#9c0000"
       inkscape:connector-curvature="0" />
    <path
       d="m 63.597143,349.19005 18.75,4.5 4.5,-15.75 -15.75,-8.24875 z"
       id="path22"
       style="fill:#b50808"
       inkscape:connector-curvature="0" />
    <path
       d="m 72.595893,326.69005 15,8.25 12.00125,-8.25 -11.25,-12.75 z"
       id="path24"
       style="fill:#c61818"
       inkscape:connector-curvature="0" />
    <path
       d="m 156.59589,374.6913 h -20.99875 l -1.50125,-18.00125 19.50125,-4.49875 z"
       id="path26"
       style="fill:#9c0000"
       inkscape:connector-curvature="0" />
    <path
       d="m 152.84589,349.19005 -18.75,4.5 -4.49875,-15.75 15.74875,-8.24875 z"
       id="path28"
       style="fill:#b50808"
       inkscape:connector-curvature="0" />
    <path
       d="m 143.84589,326.69005 -15,8.25 -11.99875,-8.25 11.25,-12.75 z"
       id="path30"
       style="fill:#c61818"
       inkscape:connector-curvature="0" />
    <path
       d="m 92.097143,311.69005 11.249997,13.5 h 10.49875 l 9.75125,-13.5 -9.75125,-3 h -10.7625 z"
       id="path32"
       style="fill:#ce3129"
       inkscape:connector-curvature="0" />
  </g>
</svg>
